# xmcd
#
# Track frame offsets: 
#        150
#        14687
#        28358
#        42595
#        54748
#        66453
#        77383
#        90957
#        103779
#        117786
#        131967
#        143538
#        164886
#        177915
#        191478
#        208034
#        223726
#        237864
#        250059
#        262876
#
# Disc length: 3704 seconds
#
# Revision: 0
# Processed by: cddbd v1.5.2PL0 Copyright (c) Steve Scherf et al.
# Submitted via: ExactAudioCopy v0.99pb5
#
DISCID=290e7614
DTITLE=Various Artist - The Kings Of The Delta Blues (Primo)
DYEAR=1941
DGENRE=Blues
TTITLE0=Charley Patton - A Spoonful Blues (1929)
TTITLE1=Charley Patton - Pony Blues (1929)
TTITLE2=Charley Patton - Mississippi Bo Weavil Blues (1929)
TTITLE3=Robert Johnson - Hellhound On My Trail (1937)
TTITLE4=Robert Johnson - Cross Road Blues (1937)
TTITLE5=Robert Johnson - Love In Vain (1937)
TTITLE6=Blind Lemon Jefferson - Rabbit Foot Blues (1926)
TTITLE7=Mississippi John Hurt - Candy Man (1928)
TTITLE8=Sleepy John Estes - Milk Cow Blues (1929)
TTITLE9=Furry Lewis - Casey Jones (1929)
TTITLE10=Blind Willie McTell - Statesboro' Blues (1927)
TTITLE11=Blind Willie McTell - Dyin' Crapshooter's Blues (1935)
TTITLE12=Skip James - I'm So Glad (1931)
TTITLE13=Skip James - Devil Got My Woman (1931)
TTITLE14=Tommy Johnson - Canned Heat Blues (1928)
TTITLE15=Muddy Waters - Country Blues (1941)
TTITLE16=Muddy Waters - I Be's Troubled (1941)
TTITLE17=Bukka White - District Attorney Blues (1940)
TTITLE18=Bukka White - Fixin' To Die Blues (1940)
TTITLE19=Blind Willie Johnson - Dark Was The Night (Cold Was The Groun
TTITLE19=d) (1927)
EXTD=
EXTT0=
EXTT1=
EXTT2=
EXTT3=
EXTT4=
EXTT5=
EXTT6=
EXTT7=
EXTT8=
EXTT9=
EXTT10=
EXTT11=
EXTT12=
EXTT13=
EXTT14=
EXTT15=
EXTT16=
EXTT17=
EXTT18=
EXTT19=
PLAYORDER=
